<?xml version="1.0" standalone="no"?>
<!DOCTYPE svg PUBLIC "-//W3C//DTD SVG 20010904//EN"
 "http://www.w3.org/TR/2001/REC-SVG-20010904/DTD/svg10.dtd">
<svg version="1.0" xmlns="http://www.w3.org/2000/svg"
 width="128.000000pt" height="128.000000pt" viewBox="0 0 512.000000 512.000000"
 preserveAspectRatio="xMidYMid meet">

<g transform="translate(0.000000,512.000000) scale(0.100000,-0.100000)"
fill="#000000" stroke="none">
<path d="M1635 4829 c-56 -14 -107 -52 -136 -102 l-24 -42 0 -2125 0 -2125 24
-42 c31 -53 81 -89 146 -103 34 -7 336 -10 945 -8 l895 3 45 25 c24 14 58 45
75 68 l30 44 0 2138 0 2138 -30 44 c-17 23 -51 54 -75 68 l-45 25 -905 2
c-544 1 -921 -2 -945 -8z m1043 -364 c99 -24 179 -70 257 -149 107 -108 155
-221 155 -366 0 -295 -233 -532 -525 -533 -152 0 -269 47 -375 153 -107 106
-160 232 -160 380 0 147 48 260 154 365 141 140 314 192 494 150z m17 -1391
c132 -34 261 -135 328 -256 142 -255 50 -579 -205 -722 -253 -141 -579 -48
-722 206 -140 252 -54 566 198 717 112 67 272 89 401 55z m36 -1398 c401 -137
487 -673 149 -927 -165 -124 -382 -142 -564 -47 -34 18 -92 63 -132 103 -106
105 -154 218 -154 365 0 367 355 623 701 506z"/>
<path d="M433 4388 c30 -438 360 -827 794 -939 42 -10 82 -19 90 -19 11 0 13
93 13 525 l0 525 -452 0 -451 0 6 -92z"/>
<path d="M3790 3954 l0 -526 43 7 c71 11 218 64 297 106 276 148 477 419 540
729 11 54 20 123 20 154 l0 56 -450 0 -450 0 0 -526z"/>
<path d="M430 3036 c0 -30 7 -90 15 -133 53 -281 209 -523 439 -682 123 -85
250 -138 419 -175 l27 -6 0 525 0 525 -450 0 -450 0 0 -54z"/>
<path d="M3790 2565 l0 -525 28 6 c282 62 494 192 655 402 125 162 217 412
217 588 l0 54 -450 0 -450 0 0 -525z"/>
<path d="M430 1651 c0 -32 7 -96 16 -141 74 -391 367 -714 748 -824 48 -14 99
-26 112 -26 l24 0 0 525 0 525 -450 0 -450 0 0 -59z"/>
<path d="M3790 1185 l0 -525 24 0 c34 0 180 44 251 75 33 15 103 55 155 90
266 177 445 481 467 793 l6 92 -451 0 -452 0 0 -525z"/>
</g>
</svg>
